# xmcd
#
# Track frame offsets:
#	150
#	13987
#	27087
#	38047
#	51277
#	69440
#	93335
#	101105
#	112305
#	123605
#	140445
#	158775
#	183925
#	200360
#
# Disc length: 2978 seconds
#
# Revision: 1
# Processed by: cddbd v1.5PL3 Copyright (c) Steve Scherf et al.
# Submitted via: CDex 1.50Beta5
#
DISCID=c50ba00e
DTITLE=Supergrass - Life On Other Planets
DYEAR=2002
DGENRE=Rock
TTITLE0=Za
TTITLE1=Rush Hour Soul
TTITLE2=Seen The Light
TTITLE3=Brecon Beacons
TTITLE4=Can't Get Up
TTITLE5=Evening Of The Day
TTITLE6=Never Done Nothing Like That Before
TTITLE7=Funniest Thing
TTITLE8=Grace
TTITLE9=La Song
TTITLE10=Prophet 15
TTITLE11=Run
TTITLE12=Velvetine
TTITLE13=Electric Cowboy
EXTD=
EXTT0=
EXTT1=
EXTT2=
EXTT3=
EXTT4=
EXTT5=
EXTT6=
EXTT7=
EXTT8=
EXTT9=
EXTT10=
EXTT11=
EXTT12=
EXTT13=
PLAYORDER=
